#File generated from solving marker data for model walk1.trc
name solved_motion
datacolumns 41
datarows 10
range 0.5000000000 0.5750000000
units unknown
enforce_loops no
enforce_constraints no
endheader

time	lower_torso_TX	lower_torso_TY	lower_torso_TZ	lower_torso_RX	lower_torso_RY	lower_torso_RZ	lumbar_roll	lumbar_yaw	lumbar_pitch	neck_roll	neck_yaw	neck_pitch	arm_add_r	arm_rot_r	arm_flex_r	elbow_flex_r	pro_sup_r	wrist_dev_r	wrist_flex_r	arm_add_l	arm_rot_l	arm_flex_l	elbow_flex_l	pro_sup_l	wrist_dev_l	wrist_flex_l	hip_add_r	hip_rot_r	hip_flex_r	knee_flex_r	ankle_flex_r	subt_angle_r	toe_angle_r	hip_add_l	hip_rot_l	hip_flex_l	knee_flex_l	ankle_flex_l	subt_angle_l	toe_angle_l	
0.5000000000	-1.0317194511	0.2929306253	0.6979243369	88.6473975787	-2.8901851831	-4.9899899939	4.8454535589	2.5442447508	-13.4273232028	0.0000000000	0.0000000000	0.0000000000	-40.1727577723	-9.9999999996	25.2282891740	0.0000000000	70.0000000000	0.0000000000	0.0000000000	-21.5881013065	10.0000000000	28.1939240762	0.0000000000	70.0000000000	0.0000000000	0.0000000000	4.5333163366	12.8897028913	52.9330144067	96.0725906204	30.0000000000	18.7995171172	0.0000000000	-1.6458632715	16.8656474671	50.0424620521	110.5812613947	7.6966356575	19.8011139888	-0.0010000000	
0.5080000000	-1.0261142850	0.2916988975	0.6988932960	88.6697233271	-3.2690959115	-4.8644908351	4.7225473262	2.7437365780	-13.8620102362	0.0000000000	0.0000000000	0.0000000000	-40.4316095139	-9.9999999996	26.0580474670	0.0000000000	70.0000000000	0.0000000000	0.0000000000	-21.6617923461	10.0000000000	27.5855811343	0.0000000000	70.0000000000	0.0000000000	0.0000000000	4.8738937432	13.0447743733	52.3674187777	95.9699030653	30.0000000000	18.3706778010	0.0000000000	-1.7583517046	16.4745874972	50.7718902055	110.5761506895	8.4972715950	18.6629087432	-0.0020000000	
0.5170000000	-1.0196172370	0.2911594928	0.6989396743	88.6238259823	-3.5474249079	-5.0086928077	4.6844723086	3.4025532798	-13.6030472655	0.0000000000	0.0000000000	0.0000000000	-40.8687595305	-9.9999999996	26.1431922020	0.0000000000	70.0000000000	0.0000000000	0.0000000000	-21.3143322602	10.0000000000	27.1996197538	0.0000000000	70.0000000000	0.0000000000	0.0000000000	4.7207253029	12.9917028146	51.9618419698	96.0305554326	30.0000000000	19.4704119065	0.0000000000	-1.5959823318	16.2833895348	51.9563773471	110.5053545544	8.5724918534	18.3054331293	-0.0030000000	
0.5250000000	-1.0130433070	0.2900455627	0.6988934249	88.3637601736	-3.9445390438	-5.3039921931	4.8443223506	3.6234511748	-13.4981527101	0.0000000000	0.0000000000	0.0000000000	-41.1083737778	-9.9999999996	27.1118515410	0.0000000000	70.0000000000	0.0000000000	0.0000000000	-21.2027048658	10.0000000000	26.1155002993	0.0000000000	70.0000000000	0.0000000000	0.0000000000	5.2301443561	13.0118628899	51.7029471856	96.1750117182	29.9861808770	18.4963217665	0.0000000000	-1.9445542631	15.9080807312	53.4606845507	110.4369126527	9.0516358223	16.8288154584	-0.0040000000	
0.5330000000	-1.0074668323	0.2892617734	0.6996202563	88.3763222767	-4.3856215453	-5.2484421980	4.8238304383	3.7840321954	-13.8280856397	0.0000000000	0.0000000000	0.0000000000	-41.5484969579	-9.9999999996	28.1396244980	0.0000000000	70.0000000000	0.0000000000	0.0000000000	-21.7832625330	10.0000000000	25.1747262174	0.0000000000	70.0000000000	0.0000000000	0.0000000000	5.3538896240	13.1960838832	51.2382753010	96.2607465888	30.0000000000	18.6996231460	0.0000000000	-1.5535492148	15.8405799302	54.2908043661	110.2464279926	9.7982456625	18.8861252438	-0.0050000000	
0.5420000000	-1.0026272918	0.2882631250	0.7000500359	88.5890956523	-4.6575389817	-5.2897159467	4.3638574153	4.1131066816	-13.9559173710	0.0000000000	0.0000000000	0.0000000000	-41.6826942440	-9.9999999996	28.8036961808	0.0000000000	70.0000000000	0.0000000000	0.0000000000	-21.9028776200	10.0000000000	24.9195120858	0.0000000000	70.0000000000	0.0000000000	0.0000000000	5.3715728515	13.4115492107	51.0689809270	96.5525684862	29.6256902947	18.2257764643	0.0000000000	-1.1011248185	15.5880681684	55.4711562279	109.9800152743	9.7561449819	17.3835938974	-0.0060000000	
0.5500000000	-0.9961784752	0.2875926656	0.7012553648	88.5774297214	-5.3594632304	-5.0287644810	4.1219988848	5.0940431596	-14.3325233012	0.0000000000	0.0000000000	0.0000000000	-42.0817930406	-9.9999999996	28.9203926857	0.0000000000	70.0000000000	0.0000000000	0.0000000000	-21.7373140602	10.0000000000	24.2801096947	0.0000000000	70.0000000000	0.0000000000	0.0000000000	5.6495570957	13.8419007429	50.1447949811	96.2417289402	29.9999999984	18.7814712622	0.0000000000	-1.2342549544	15.0550830395	56.2175965326	109.6536373680	9.9097386831	16.8077129419	-0.0070000000	
0.5580000000	-0.9906736594	0.2874999020	0.7020199041	88.7297726160	-5.7482410562	-4.7861192347	3.7643046536	5.8863051219	-14.8610128711	0.0000000000	0.0000000000	0.0000000000	-42.6139561015	-9.9999999996	29.0920155424	0.0000000000	70.0000000000	0.0000000000	0.0000000000	-21.5831651842	10.0000000000	23.9770139898	0.0000000000	70.0000000000	0.0000000000	0.0000000000	5.4379901094	14.1157179484	49.4200853978	96.2865004602	30.0000000000	19.6581554625	0.0000000000	-0.7604663087	14.8959334489	56.9813776543	109.3033382520	10.6259607763	15.1391089446	-0.0080000000	
0.5670000000	-0.9834449337	0.2882203705	0.7018576636	88.6928257559	-5.7351914932	-4.9211894020	3.9247844753	5.9152205386	-14.6408395250	0.0000000000	0.0000000000	0.0000000000	-43.0227342763	-9.9999999996	29.7576284555	0.0000000000	70.0000000000	0.0000000000	0.0000000000	-22.0462108430	10.0000000000	22.8129892888	0.0000000000	70.0000000000	0.0000000000	0.0000000000	5.1734067214	13.9184740905	49.1038314450	96.3718621403	29.9052488048	20.0000000000	0.0000000000	-0.3846228935	15.0548541024	58.2261189913	108.9603340385	11.1181055527	15.0937409975	-0.0090000000	
0.5750000000	-0.9778965660	0.2878465669	0.7021404415	88.5995306000	-5.8925509009	-4.9120849911	3.8581477848	6.0236418893	-14.8887884486	0.0000000000	0.0000000000	0.0000000000	-43.2998620104	-9.9999999996	30.4646631076	0.0000000000	70.0000000000	0.0000000000	0.0000000000	-22.0949179678	10.0000000000	21.9206020189	0.0000000000	70.0000000000	0.0000000000	0.0000000000	5.0485164350	13.6618824830	48.6076592960	96.4953696568	30.0000000000	20.0000000000	0.0000000000	-0.1709342302	15.4879136203	59.0716369203	108.6855331571	11.0615393388	15.9977116037	-0.0100000000	
